<svg width="49" height="63" viewBox="0 0 49 63" fill="none" xmlns="http://www.w3.org/2000/svg">
<path d="M18.788 59.5034V40.942M24.0505 28.4265H24.0768M24.0505 17.1259H24.0768M29.3131 40.942V59.5034M31.9444 42.5524C29.6671 40.7185 26.8972 39.7272 24.0505 39.7272C21.2039 39.7272 18.434 40.7185 16.1567 42.5524M34.5757 28.4265H34.602M34.5757 17.1259H34.602M13.5254 28.4265H13.5517M13.5254 17.1259H13.5517" stroke="#08A3C7" stroke-width="6" stroke-linecap="round" stroke-linejoin="round"/>
<path d="M39.838 3H8.26257C5.35613 3 3 5.52974 3 8.65034V53.8531C3 56.9737 5.35613 59.5034 8.26257 59.5034H39.838C42.7444 59.5034 45.1006 56.9737 45.1006 53.8531V8.65034C45.1006 5.52974 42.7444 3 39.838 3Z" stroke="#08A3C7" stroke-width="6" stroke-linecap="round" stroke-linejoin="round"/>
</svg>
