<svg width="64" height="64" viewBox="0 0 64 64" fill="none" xmlns="http://www.w3.org/2000/svg">
<path d="M31.9657 0C14.3064 0.0191998 0 14.3397 0 31.9996C0.00639992 49.497 14.0664 63.7451 31.5619 63.9845C29.6451 59.1218 30.6799 53.1603 33.5996 48.7796V47.4426H34.5698C35.572 46.249 36.98 45.1988 38.6555 44.2427H33.5996V33.5996H36.5052C36.5692 32.5231 36.7752 31.4447 37.1035 30.3996H33.5996V19.7566H45.8842C46.0506 20.394 46.201 21.0493 46.3418 21.7124C47.5303 21.5204 48.6048 21.5121 49.5956 21.6375C49.4717 21.0077 49.3353 20.3803 49.1866 19.7559H58.0761C59.4708 22.7274 60.345 25.9163 60.6604 29.1836C60.9343 32.3458 60.9305 35.1919 59.9525 38.9371C59.5542 40.5389 59.0189 42.1035 58.3526 43.6135C59.0745 44.3726 59.9487 45.0906 60.8274 45.8234C62.9054 41.5108 63.9893 36.7868 63.9992 31.9996C63.9992 14.3269 49.6724 0 31.9996 0H31.9657ZM33.5996 3.63644C36.9711 4.20987 40.1928 6.98743 42.731 11.596C43.5489 13.0814 44.2798 14.7493 44.9121 16.556H33.5996V3.63644ZM30.3996 3.76251V16.556H19.6798C20.3121 14.7493 21.0429 13.0814 21.8609 11.596C24.2493 7.25815 27.2451 4.54458 30.3996 3.76251ZM23.0269 4.62842C21.5396 6.13368 20.2046 7.96918 19.057 10.0524C17.9819 12.0043 17.0571 14.1912 16.2974 16.556H7.68631C11.2287 10.9842 16.6302 6.71928 23.0269 4.62842ZM41.8491 4.92474C47.8637 7.10903 52.9338 11.2402 56.3129 16.556H48.2906C47.5329 14.1912 46.6094 12.0043 45.5342 10.0524C44.4615 8.10358 43.2212 6.37304 41.8491 4.92474ZM5.92441 19.7566H15.4014C14.6046 23.0602 14.1163 26.6429 13.9915 30.4003H3.24604C3.44497 26.7133 4.3542 23.0994 5.92377 19.7572M18.707 19.7572H30.3996V30.3996H17.1947C17.3303 26.6013 17.8622 23.0058 18.707 19.7572ZM3.24604 33.5996H13.9736C14.0561 37.3474 14.4984 40.9301 15.2497 44.2427H5.92377C4.3542 40.9005 3.44497 37.2866 3.24604 33.5996ZM17.1735 33.5996H30.3996V44.2427H18.547C17.7502 40.9787 17.2631 37.3851 17.1735 33.5996ZM7.68631 47.4426H16.0932C16.8881 50.057 17.8852 52.4602 19.057 54.5881C19.9774 56.2585 21.0205 57.7682 22.1636 59.0789C16.1432 56.8966 11.0687 52.7622 7.68631 47.4426ZM19.4583 47.4433H30.3996V60.7538C30.2025 60.7429 30.008 60.7231 29.8121 60.709C26.8746 59.749 24.1008 57.1123 21.8609 53.0451C20.9469 51.385 20.138 49.5015 19.4583 47.4439" fill="#08A3C7"/>
<path d="M48.6396 24.1719C43.3373 24.1719 39.0397 28.4701 39.0397 33.7718C39.0397 39.0735 43.3373 43.3716 48.6396 43.3716C53.9407 43.3716 58.2395 39.0735 58.2395 33.7718C58.2395 28.4701 53.9407 24.1719 48.6396 24.1719ZM48.6396 44.7943C38.0349 44.7943 33.2798 49.5501 33.2798 60.1541V61.4341C33.3278 63.9557 34.4427 64.0299 36.7997 63.9941H60.4795C63.4842 63.9915 64.0199 63.9973 63.9994 61.4341V60.1541C63.9994 49.5501 59.243 44.7943 48.6396 44.7943Z" fill="#08A3C7"/>
</svg>
