<svg width="64" height="64" viewBox="0 0 64 64" fill="none" xmlns="http://www.w3.org/2000/svg">
<path d="M27.2 0C26.7757 0 26.3687 0.168571 26.0686 0.468629C25.7686 0.768687 25.6 1.17565 25.6 1.6V7.54112C23.3689 8.12828 21.2291 9.01963 19.241 10.1901L15.0298 5.97888C14.8812 5.83017 14.7047 5.71219 14.5105 5.6317C14.3163 5.55121 14.1081 5.50978 13.8979 5.50978C13.6877 5.50978 13.4795 5.55121 13.2853 5.6317C13.0911 5.71219 12.9147 5.83017 12.7661 5.97888L5.97888 12.7661C5.83017 12.9147 5.71219 13.0911 5.6317 13.2853C5.55121 13.4795 5.50978 13.6877 5.50978 13.8979C5.50978 14.1081 5.55121 14.3163 5.6317 14.5105C5.71219 14.7047 5.83017 14.8812 5.97888 15.0298L10.1914 19.2422C9.02146 21.2301 8.13055 23.3694 7.54368 25.6H1.6C1.17565 25.6 0.768687 25.7686 0.468629 26.0686C0.168571 26.3687 0 26.7757 0 27.2L0 36.8C0 37.2243 0.168571 37.6313 0.468629 37.9314C0.768687 38.2314 1.17565 38.4 1.6 38.4H7.54368C8.13055 40.6306 9.02146 42.7699 10.1914 44.7578L5.97888 48.9702C5.83017 49.1188 5.71219 49.2953 5.6317 49.4895C5.55121 49.6837 5.50978 49.8919 5.50978 50.1021C5.50978 50.3123 5.55121 50.5205 5.6317 50.7147C5.71219 50.9089 5.83017 51.0853 5.97888 51.2339L12.7661 58.0211C12.9147 58.1698 13.0911 58.2878 13.2853 58.3683C13.4795 58.4488 13.6877 58.4902 13.8979 58.4902C14.1081 58.4902 14.3163 58.4488 14.5105 58.3683C14.7047 58.2878 14.8812 58.1698 15.0298 58.0211L19.241 53.8099C21.2297 54.9766 23.3694 55.8643 25.6 56.448V62.4C25.6 62.8243 25.7686 63.2313 26.0686 63.5314C26.3687 63.8314 26.7757 64 27.2 64H36.8C37.2243 64 37.6313 63.8314 37.9314 63.5314C38.2314 63.2313 38.4 62.8243 38.4 62.4V56.4563C40.6299 55.8697 42.7678 54.977 44.7526 53.8035L48.9702 58.0211C49.5949 58.6458 50.6086 58.6458 51.2339 58.0211L58.0211 51.2339C58.1698 51.0853 58.2878 50.9089 58.3683 50.7147C58.4488 50.5205 58.4902 50.3123 58.4902 50.1021C58.4902 49.8919 58.4488 49.6837 58.3683 49.4895C58.2878 49.2953 58.1698 49.1188 58.0211 48.9702L53.7843 44.7328C54.9445 42.7514 55.8286 40.6207 56.4122 38.4H62.4C62.8243 38.4 63.2313 38.2314 63.5314 37.9314C63.8314 37.6313 64 37.2243 64 36.8V27.2C64 26.7757 63.8314 26.3687 63.5314 26.0686C63.2313 25.7686 62.8243 25.6 62.4 25.6H56.4128C55.8293 23.379 54.9452 21.2482 53.785 19.2666L58.0218 15.0298C58.1705 14.8812 58.2884 14.7047 58.3689 14.5105C58.4494 14.3163 58.4909 14.1081 58.4909 13.8979C58.4909 13.6877 58.4494 13.4795 58.3689 13.2853C58.2884 13.0911 58.1705 12.9147 58.0218 12.7661L51.2333 5.97888C51.0847 5.8302 50.9083 5.71224 50.7142 5.63175C50.52 5.55126 50.3119 5.5098 50.1018 5.50976C49.8914 5.50964 49.683 5.55101 49.4886 5.63151C49.2943 5.712 49.1177 5.83005 48.969 5.97888L44.7514 10.1965C42.7656 9.02861 40.6283 8.13984 38.4 7.5552V1.6C38.4 1.17565 38.2314 0.768687 37.9314 0.468629C37.6313 0.168571 37.2243 0 36.8 0L27.2 0ZM32 11.2C43.5136 11.2 52.8 20.4864 52.8 32C52.8 43.5136 43.5136 52.8 32 52.8C20.4864 52.8 11.2 43.5136 11.2 32C11.2 20.4864 20.4864 11.2 32 11.2Z" fill="#08A3C7"/>
<path d="M33.0861 12.4801V21.3108H40.7661C40.3373 20.0756 39.8406 18.9364 39.2851 17.9207C37.5622 14.7707 35.3747 12.8724 33.0861 12.4801ZM30.9139 12.5665C28.7718 13.1015 26.7385 14.9556 25.1174 17.9207C24.5619 18.9364 24.0653 20.0756 23.6365 21.3108H30.9133L30.9139 12.5665ZM25.9091 13.1585C21.5661 14.5876 17.8989 17.5028 15.4944 21.3108H21.3401C21.856 19.6942 22.4838 18.2004 23.2134 16.8654C23.9923 15.442 24.8992 14.187 25.9091 13.1585ZM38.6867 13.3607C39.6185 14.3508 40.4595 15.5335 41.1885 16.8654C41.9181 18.1998 42.5453 19.6942 43.0598 21.3108H48.5062C46.2112 17.6775 42.7699 14.8532 38.6867 13.3607ZM14.2976 23.4983C13.2318 25.7847 12.6148 28.2543 12.48 30.7732H19.7747C19.8585 28.2043 20.1907 25.7563 20.7315 23.4983H14.2976ZM22.976 23.4983C22.4025 25.7191 22.0416 28.1767 21.9494 30.7732H30.9139V23.4983H22.976ZM33.0861 23.4983V30.7732H42.4531C42.3609 28.1774 42 25.7191 41.4259 23.4983H33.0861ZM43.6678 23.4983C44.208 25.7569 44.5382 28.2049 44.6227 30.7732H51.52C51.3852 28.2543 50.7681 25.7847 49.7024 23.4983H43.6678ZM12.48 32.9601C12.6148 35.479 13.2318 37.9487 14.2976 40.235H20.6291C20.119 37.97 19.8182 35.5214 19.7625 32.9601H12.48ZM21.9347 32.9601C21.9961 35.5476 22.3264 38.0033 22.8678 40.235H30.9139V32.9601H21.9347ZM33.0861 32.9601V40.235H41.5347C42.0755 38.0033 42.4064 35.5476 42.4672 32.9601H33.0861ZM44.6329 32.9601C44.5766 35.5214 44.2784 37.97 43.7696 40.235H49.7024C50.7681 37.9487 51.3852 35.479 51.52 32.9601H44.6329ZM15.4937 42.4219C17.7907 46.0583 21.2352 48.8833 25.3222 50.3751C24.5465 49.4791 23.8381 48.4475 23.2134 47.3057C22.4185 45.851 21.7414 44.2081 21.2019 42.4225L15.4937 42.4219ZM23.4861 42.4219C23.9469 43.8279 24.4966 45.1163 25.1174 46.2503C26.6374 49.0305 28.5203 50.8327 30.5152 51.4887C30.6477 51.499 30.7801 51.5124 30.9139 51.5195V42.4225L23.4861 42.4219ZM33.0861 42.4219V51.5201C33.3962 51.503 33.7043 51.4796 34.0102 51.4497C35.959 50.7604 37.7958 48.9742 39.2851 46.251C39.9059 45.1163 40.455 43.8286 40.9158 42.4225L33.0861 42.4219ZM43.1987 42.4219C42.6605 44.2087 41.984 45.851 41.1885 47.3051C40.6448 48.3082 40.0066 49.2572 39.2825 50.139C43.0892 48.5962 46.3152 45.8971 48.5056 42.4225L43.1987 42.4219Z" fill="#08A3C7"/>
</svg>
