<svg width="51" height="57" viewBox="0 0 51 57" fill="none" xmlns="http://www.w3.org/2000/svg">
<path fill-rule="evenodd" clip-rule="evenodd" d="M23.4943 0.360283C24.7759 -0.120094 26.188 -0.120094 27.4695 0.360283L47.2888 7.79251C48.3684 8.1972 49.2987 8.9218 49.9555 9.86944C50.6122 10.8171 50.964 11.9426 50.9638 13.0956V28.28C50.9639 33.0123 49.6462 37.6512 47.1583 41.6768C44.6705 45.7024 41.1107 48.9557 36.878 51.0721L27.3817 55.8203C26.7919 56.1153 26.1414 56.2689 25.4819 56.2689C24.8224 56.2689 24.172 56.1153 23.5821 55.8203L14.0858 51.0721C9.85312 48.9557 6.29338 45.7024 3.8055 41.6768C1.31762 37.6512 -0.000102017 33.0123 4.39359e-08 28.28V13.0956C-0.000143544 11.9426 0.351661 10.8171 1.00838 9.86944C1.66511 8.9218 2.59546 8.1972 3.67506 7.79251L23.4943 0.360283ZM25.4819 5.66335L5.66265 13.0956V28.28C5.6633 31.9603 6.6887 35.5678 8.62397 38.6982C10.5592 41.8287 13.3279 44.3584 16.6199 46.0041L25.4819 50.4408V5.66335Z" fill="#08A3C7"/>
</svg>
