<svg width="83" height="64" viewBox="0 0 83 64" fill="none" xmlns="http://www.w3.org/2000/svg">
<path d="M75.2941 1.88235C71.1153 0.564706 66.5224 0 62.1176 0C54.7765 0 46.8706 1.50588 41.4118 5.64706C35.9529 1.50588 28.0471 0 20.7059 0C13.3647 0 5.45882 1.50588 0 5.64706V64C5.45882 59.8588 13.3647 58.3529 20.7059 58.3529C28.0471 58.3529 35.9529 59.8588 41.4118 64C46.8706 59.8588 54.7765 58.3529 62.1176 58.3529C66.5224 58.3529 71.1153 58.9176 75.2941 60.2353C78.1176 61.1765 80.5647 62.3059 82.8235 64V5.64706C80.5647 3.95294 78.1176 2.82353 75.2941 1.88235ZM75.2941 52.7059C71.1529 51.3882 66.6353 50.8235 62.1176 50.8235C55.7176 50.8235 46.4941 53.2706 41.4118 56.4706V13.1765C46.4941 9.97647 55.7176 7.52941 62.1176 7.52941C66.6353 7.52941 71.1529 8.09412 75.2941 9.41177V52.7059Z" fill="#08A3C7"/>
<path d="M62.1174 22.5882C65.4304 22.5882 68.6304 22.927 71.5292 23.567V17.8447C68.5551 17.28 65.3551 16.9412 62.1174 16.9412C55.7174 16.9412 49.9198 18.0329 45.1763 20.0659V26.3153C49.4304 23.9059 55.341 22.5882 62.1174 22.5882ZM45.1763 30.08V36.3294C49.4304 33.92 55.341 32.6023 62.1174 32.6023C65.4304 32.6023 68.6304 32.9412 71.5292 33.5812V27.8588C68.5551 27.2941 65.3551 26.9553 62.1174 26.9553C55.7174 26.9553 49.9198 28.0847 45.1763 30.08ZM62.1174 37.007C55.7174 37.007 49.9198 38.0988 45.1763 40.1318V46.3812C49.4304 43.9718 55.341 42.6541 62.1174 42.6541C65.4304 42.6541 68.6304 42.9929 71.5292 43.6329V37.9106C68.5551 37.3082 65.3551 37.007 62.1174 37.007Z" fill="#08A3C7"/>
</svg>
