<svg width="65" height="43" viewBox="0 0 65 43" fill="none" xmlns="http://www.w3.org/2000/svg">
<path d="M0 0V39.6923H33.4898C32.8013 37.5573 32.4508 35.3243 32.4513 33.0769H12.9805C12.9805 31.3224 12.2967 29.6398 11.0796 28.3991C9.86241 27.1585 8.21159 26.4615 6.49026 26.4615V13.2308C10.0924 13.2308 12.9805 10.2869 12.9805 6.61538H45.4319C45.4319 8.36989 46.1156 10.0525 47.3328 11.2932C48.55 12.5338 50.2008 13.2308 51.9221 13.2308V13.4292C54.0964 13.4292 56.2706 13.8262 58.4124 14.5538V0H0ZM29.2062 9.92308C23.6895 10.0223 19.4708 14.2231 19.4708 19.8462C19.4708 25.4692 23.6895 29.5708 29.2062 29.7692C30.4393 29.7692 31.7049 29.5046 32.9056 29.0085C33.7818 25.37 35.2421 21.93 38.8442 18.5562C38.4548 14.1569 34.366 9.82385 29.2062 9.92308ZM60.4568 20.7392L47.8982 33.6392L43.5172 29.1077L38.9416 33.8046L47.8657 43L65 25.4031L60.4568 20.7392Z" fill="#08A3C7"/>
</svg>
